<?xml version="1.0" encoding="UTF-8"?>
<svg id="Calque_2" data-name="Calque 2" xmlns="http://www.w3.org/2000/svg" viewBox="0 0 385.07 384.78">
  <defs>
    <style>
      .cls-1 {
        fill: #89b6e2;
      }

      .cls-2 {
        fill: #cc8539;
      }

      .cls-3 {
        fill: #fff;
      }
    </style>
  </defs>
  <g id="earth">
    <g>
      <path class="cls-1" d="M198.98,12.61C96.37,12.61,12.89,96.09,12.89,198.7s83.47,186.09,186.09,186.09,186.09-83.47,186.09-186.09S301.58,12.61,198.98,12.61ZM89.01,331.75c-27.45-22.73-47.79-53.77-57.09-89.24,8.82,3.71,20.12,9.13,23.59,12.6,5.77,5.77,5.77,23.06,11.54,28.83,5.76,5.77,28.83,5.77,28.83,17.31,0,6.09-3.61,19.72-6.87,30.51ZM78.56,128.21c-5.77,0-5.77-23.06-11.53-23.06s-17.31,11.53-17.31,17.29,11.54,34.62,11.54,40.38c0,3.53-20.8,15.47-34.48,22.65,3.59-47.16,26.2-89.08,60.14-118.09,4.63,4.79,14.71,15.82,14.71,20.45,0,5.77-17.31,40.37-23.08,40.37ZM355.42,208.96c-5.77,5.77-5.77,23.06-11.54,23.06s-17.29-40.37-23.06-40.37-11.54,5.77-17.31,0c-5.6-5.6-11.18-11.18-11.53-11.53.35.71,11.53,23.16,11.53,28.83s-17.31,23.06-23.08,17.29c-5.76-5.77-17.29-40.37-17.29-40.37,0,0,0,46.14,5.77,51.91,5.77,5.77,15.57,1.73,17.29,5.77,2.89,6.92-17.29,17.31-17.29,23.08v17.29c0,5.77-28.85,34.62-34.62,40.37-5.77,5.77-17.29,0-23.06-5.76-5.77-5.77-11.54-17.31-11.54-23.08s5.77-11.54,5.77-17.31-17.31-34.6-23.08-34.6-17.29,5.77-23.06,5.77-28.85-17.31-28.85-23.08v-34.6c0-5.77,57.68-28.83,63.45-28.83s11.54,11.53,17.31,11.53,39.68,11.87,39.98,14.92c1.43,14.35,6.16-26.45.39-26.45s-11.54,0-11.54-5.77,23.08-17.31,17.31-23.08c-5.77-5.77-23.08,11.54-28.85,11.54s-17.29-11.54-23.06-11.54-34.6,23.08-40.37,23.08-11.54-5.77-11.54-11.54,11.54-28.85,17.31-28.85,40.37,0,46.14-5.76c5.77-5.77,5.77-23.08,0-23.08s-23.08,11.54-28.85,5.77c-4.03-4.04,23.08-28.85,28.85-28.85h34.6c3.76,0,20.51-10.48,31.18-17.04,52.98,29.52,88.91,86.14,88.91,150.98,0,1.73-.03,3.44-.08,5.15-6.41.78-13.25,2.18-16.18,5.11Z"/>
      <path class="cls-2" d="M186.09,0C83.47,0,0,83.49,0,186.09s83.47,186.09,186.09,186.09,186.09-83.47,186.09-186.09S288.69,0,186.09,0ZM76.11,319.14c-27.45-22.73-47.79-53.77-57.09-89.24,8.82,3.71,20.12,9.13,23.59,12.6,5.77,5.77,5.77,23.06,11.54,28.83,5.76,5.77,28.83,5.77,28.83,17.31,0,6.09-3.61,19.72-6.87,30.51ZM65.67,115.6c-5.77,0-5.77-23.06-11.53-23.06s-17.31,11.53-17.31,17.29,11.54,34.62,11.54,40.38c0,3.53-20.8,15.47-34.48,22.65,3.59-47.16,26.2-89.08,60.14-118.09,4.63,4.79,14.71,15.82,14.71,20.45,0,5.77-17.31,40.37-23.08,40.37ZM342.53,196.36c-5.77,5.77-5.77,23.06-11.54,23.06s-17.29-40.37-23.06-40.37-11.54,5.77-17.31,0c-5.6-5.6-11.18-11.18-11.53-11.53.35.71,11.53,23.16,11.53,28.83s-17.31,23.06-23.08,17.29c-5.76-5.77-17.29-40.37-17.29-40.37,0,0,0,46.14,5.77,51.91,5.77,5.77,15.57,1.73,17.29,5.77,2.89,6.92-17.29,17.31-17.29,23.08v17.29c0,5.77-28.85,34.62-34.62,40.37-5.77,5.77-17.29,0-23.06-5.76-5.77-5.77-11.54-17.31-11.54-23.08s5.77-11.54,5.77-17.31-17.31-34.6-23.08-34.6-17.29,5.77-23.06,5.77-28.85-17.31-28.85-23.08v-34.6c0-5.77,57.68-28.83,63.45-28.83s11.54,11.53,17.31,11.53,39.68,11.87,39.98,14.92c1.43,14.35,6.16-26.45.39-26.45s-11.54,0-11.54-5.77,23.08-17.31,17.31-23.08c-5.77-5.77-23.08,11.54-28.85,11.54s-17.29-11.54-23.06-11.54-34.6,23.08-40.37,23.08-11.54-5.77-11.54-11.54,11.54-28.85,17.31-28.85,40.37,0,46.14-5.76c5.77-5.77,5.77-23.08,0-23.08s-23.08,11.54-28.85,5.77c-4.03-4.04,23.08-28.85,28.85-28.85h34.6c3.76,0,20.51-10.48,31.18-17.04,52.98,29.52,88.91,86.14,88.91,150.98,0,1.73-.03,3.44-.08,5.15-6.41.78-13.25,2.18-16.18,5.11Z"/>
      <path class="cls-3" d="M191.48,4.5C88.86,4.5,5.39,87.98,5.39,190.58s83.47,186.09,186.09,186.09,186.09-83.47,186.09-186.09S294.08,4.5,191.48,4.5ZM81.5,323.64c-27.45-22.73-47.79-53.77-57.09-89.24,8.82,3.71,20.12,9.13,23.59,12.6,5.77,5.77,5.77,23.06,11.54,28.83,5.76,5.77,28.83,5.77,28.83,17.31,0,6.09-3.61,19.72-6.87,30.51ZM71.06,120.1c-5.77,0-5.77-23.06-11.53-23.06s-17.31,11.53-17.31,17.29,11.54,34.62,11.54,40.38c0,3.53-20.8,15.47-34.48,22.65,3.59-47.16,26.2-89.08,60.14-118.09,4.63,4.79,14.71,15.82,14.71,20.45,0,5.77-17.31,40.37-23.08,40.37ZM347.92,200.85c-5.77,5.77-5.77,23.06-11.54,23.06s-17.29-40.37-23.06-40.37-11.54,5.77-17.31,0c-5.6-5.6-11.18-11.18-11.53-11.53.35.71,11.53,23.16,11.53,28.83s-17.31,23.06-23.08,17.29c-5.76-5.77-17.29-40.37-17.29-40.37,0,0,0,46.14,5.77,51.91,5.77,5.77,15.57,1.73,17.29,5.77,2.89,6.92-17.29,17.31-17.29,23.08v17.29c0,5.77-28.85,34.62-34.62,40.37-5.77,5.77-17.29,0-23.06-5.76-5.77-5.77-11.54-17.31-11.54-23.08s5.77-11.54,5.77-17.31-17.31-34.6-23.08-34.6-17.29,5.77-23.06,5.77-28.85-17.31-28.85-23.08v-34.6c0-5.77,57.68-28.83,63.45-28.83s11.54,11.53,17.31,11.53,39.68,11.87,39.98,14.92c1.43,14.35,6.16-26.45.39-26.45s-11.54,0-11.54-5.77,23.08-17.31,17.31-23.08c-5.77-5.77-23.08,11.54-28.85,11.54s-17.29-11.54-23.06-11.54-34.6,23.08-40.37,23.08-11.54-5.77-11.54-11.54,11.54-28.85,17.31-28.85,40.37,0,46.14-5.76c5.77-5.77,5.77-23.08,0-23.08s-23.08,11.54-28.85,5.77c-4.03-4.04,23.08-28.85,28.85-28.85h34.6c3.76,0,20.51-10.48,31.18-17.04,52.98,29.52,88.91,86.14,88.91,150.98,0,1.73-.03,3.44-.08,5.15-6.41.78-13.25,2.18-16.18,5.11Z"/>
    </g>
  </g>
</svg>